# xmcd CD database file generated by MAGIX-FreeDB-MP3_deluxe_MX v3.0beta1
#
# Track frame offsets:
#	225
#	8746
#	22209
#	31816
#	41697
#	65330
#	78097
#	89321
#	100715
#	110002
#	119478
#	130734
#	143172
#	152533
#	163605
#	174603
#	186556
#	198026
#	211343
#	221970
#
# Disc length: 3096
#
# Revision: 2
# Processed by: cddbd v1.5.2PL0 Copyright (c) Steve Scherf et al.
# Submitted via: MAGIX-FreeDB-MP3_deluxe_MX v3.0beta1
#
DISCID=140c1514
DTITLE=Magie - Rock, n Roll
DYEAR=2015
DGENRE=40 jahre rockÂ'nÂ'roll
TTITLE0=Jerry Lee Lewis - Great Balls Of Fire
TTITLE1=Steve Gatlin - Let The Good Times Roll
TTITLE2=Littl Richard - Keep A Knockin
TTITLE3=The Champs - Tequila
TTITLE4=Greg "Fingers" - Old Rockn, n Roller
TTITLE5=Cqarl Perkins - Honey Don,t
TTITLE6=Carl Mann - Mona Lisa
TTITLE7=Fats Domino - Ain `t That Shame
TTITLE8=Ritchie Valens - Come On Let s Go
TTITLE9=Roy Orbinson - Rock House
TTITLE10=Gene Chandler - Duke Of Earl
TTITLE11=Del Chandler - Little Town Flirt
TTITLE12=Ritchie Valens - La Bamba
TTITLE13=Chris Montez - Lets Dance
TTITLE14=Bobby Vee - Rubber Ball
TTITLE15=Gene Vincent - Be-Bop-A-Lula
TTITLE16=Danny and The Juniors - At The Hop
TTITLE17=Bill Haley and His Comets - Sake,Rattle And Roll
TTITLE18=Lloyd Price - Stagger Lee
TTITLE19=Del Shannon - Runaway
EXTD=
EXTT0=
EXTT1=
EXTT2=
EXTT3=
EXTT4=
EXTT5=
EXTT6=
EXTT7=
EXTT8=
EXTT9=
EXTT10=
EXTT11=
EXTT12=
EXTT13=
EXTT14=
EXTT15=
EXTT16=
EXTT17=
EXTT18=
EXTT19=
PLAYORDER=
